<svg width="116" height="126" viewBox="0 0 116 126" fill="none" xmlns="http://www.w3.org/2000/svg">
<path d="M46.4551 2.96644C53.3058 -0.988812 61.7462 -0.988812 68.5969 2.96644L103.981 23.3955C110.832 27.3508 115.052 34.6604 115.052 42.5709V83.4291C115.052 91.3396 110.832 98.6492 103.981 102.604L68.5969 123.034C61.7462 126.989 53.3058 126.989 46.4551 123.034L11.0709 102.604C4.2202 98.6492 0 91.3396 0 83.4291V42.5709C0 34.6604 4.2202 27.3508 11.0709 23.3955L46.4551 2.96644Z" fill="url(#paint0_linear_40_3)"/>
<path d="M48.6693 33.33C48.6693 28.4386 52.6346 24.4733 57.526 24.4733C62.4175 24.4733 66.3827 28.4386 66.3827 33.33V93.1128C66.3827 98.0043 62.4175 101.97 57.526 101.97C52.6346 101.97 48.6693 98.0043 48.6693 93.1128V33.33Z" fill="white"/>
<path d="M72.5824 37.7584C72.5824 32.8669 76.5477 28.9017 81.4392 28.9017C86.3306 28.9017 90.2959 32.8669 90.2959 37.7584V64.3285C90.2959 69.2199 86.3306 73.1852 81.4392 73.1852C76.5477 73.1852 72.5824 69.2199 72.5824 64.3285V37.7584Z" fill="white"/>
<path d="M24.7562 62.1143C24.7562 57.2229 28.7215 53.2576 33.6129 53.2576C38.5043 53.2576 42.4696 57.2229 42.4696 62.1143V88.6845C42.4696 93.5759 38.5043 97.5412 33.6129 97.5412C28.7215 97.5412 24.7562 93.5759 24.7562 88.6845V62.1143Z" fill="white"/>
<defs>
<linearGradient id="paint0_linear_40_3" x1="57.526" y1="63" x2="163.401" y2="166.787" gradientUnits="userSpaceOnUse">
<stop stop-color="#6DA24A"/>
<stop offset="1" stop-color="#6DA24A" stop-opacity="0"/>
</linearGradient>
</defs>
</svg>
